<?xml version="1.0" encoding="UTF-8"?>
<svg id="uuid-5140617b-f254-4002-8d6f-0216b2f269af" xmlns="http://www.w3.org/2000/svg" version="1.1" viewBox="0 0 461.9 110.9">
  <!-- Generator: Adobe Illustrator 30.0.0, SVG Export Plug-In . SVG Version: 2.1.1 Build 123)  -->
  <defs>
    <style>
      .st0 {
        fill: #ffa116;
      }

      .st1 {
        fill: #b3b3b3;
      }

      .st1, .st2 {
        fill-rule: evenodd;
      }
    </style>
  </defs>
  <g id="uuid-448c7817-7ad1-460d-a3e0-152838232153">
    <g id="uuid-d5844864-33a0-484d-b263-082b5e5e3bcb">
      <path id="uuid-7d3f92e2-52c1-445b-b93f-3a69489fe02e" class="st2" d="M135.9,35.9v42c0,1.6.6,3,1.7,4.1s2.5,1.7,4.1,1.7h11.4c1,0,1.8.3,2.5,1.1.7.7,1.1,1.6,1.1,2.5h0c0,1.1-.4,1.9-1.1,2.6-.7.7-1.6,1.1-2.5,1.1h-11.4c-3.6,0-6.7-1.3-9.3-3.8-2.6-2.6-3.8-5.6-3.8-9.3v-42c0-1,.4-1.8,1.1-2.5.7-.7,1.5-1,2.5-1h.1c1,0,1.8.3,2.5,1,.7.7,1.1,1.5,1.1,2.5h0ZM181.2,55.7c-3.9,0-7.2,1.4-10,4.1-2.7,2.8-4.1,6.1-4.1,10s0,1.4.2,2.1l24.7-11.2c-2.8-3.4-6.4-5-10.8-5h0ZM200.7,63.5c.3-.9.3-1.8-.1-2.7-1.7-3.7-4.3-6.7-7.7-9-3.5-2.3-7.4-3.5-11.6-3.5s-10.9,2.1-15.1,6.2-6.2,9.2-6.2,15.1,2.1,10.9,6.2,15.1c4.2,4.2,9.2,6.2,15.1,6.2s8.7-1.3,12.5-4c3.6-2.6,6.2-6,7.7-10.2.4-1.2.3-2.2-.4-3.2-.7-1-1.7-1.5-2.9-1.5s-2.9.8-3.4,2.4c-1,2.8-2.6,5.1-5,6.8-2.5,1.8-5.2,2.7-8.3,2.7-4.6,0-8.3-1.8-11.1-5.4,2.2-1,7-3.2,14.3-6.5,5.9-2.7,10.7-4.8,14.4-6.5.9-.4,1.5-1.1,1.9-2h0ZM228.7,55.7c-3.9,0-7.2,1.4-10,4.1-2.7,2.8-4.1,6.1-4.1,10s0,1.4.2,2.1l24.7-11.2c-2.8-3.4-6.4-5-10.8-5h0ZM248.2,63.5c.3-.9.3-1.8-.1-2.7-1.7-3.7-4.3-6.7-7.7-9-3.5-2.3-7.4-3.5-11.6-3.5s-10.9,2.1-15.1,6.2-6.2,9.2-6.2,15.1,2.1,10.9,6.2,15.1c4.2,4.2,9.2,6.2,15.1,6.2s8.7-1.3,12.5-4c3.6-2.6,6.2-6,7.7-10.2.4-1.2.3-2.2-.4-3.2-.7-1-1.7-1.5-2.9-1.5s-2.9.8-3.4,2.4c-1,2.8-2.6,5.1-5,6.8-2.5,1.8-5.2,2.7-8.3,2.7-4.6,0-8.3-1.8-11.1-5.4,2.2-1,7-3.2,14.3-6.5,5.9-2.7,10.7-4.8,14.4-6.5.9-.4,1.5-1.1,1.9-2h0ZM259.8,32.3c1,0,1.8.3,2.5,1,.7.7,1,1.5,1,2.5v12.5h7c1,0,1.8.3,2.5,1s1,1.5,1,2.5h0c0,1.1-.4,1.9-1,2.6-.7.7-1.5,1-2.5,1h-7v24.3c0,1.1.4,2,1.1,2.7.8.8,1.7,1.1,2.8,1.1h3.1c1,0,1.8.3,2.5,1.1.7.7,1,1.6,1,2.5h0c0,1.1-.4,1.9-1,2.6-.7.7-1.5,1.1-2.5,1.1h-3.1c-3.1,0-5.7-1.1-7.9-3.2-2.2-2.2-3.2-4.8-3.2-7.8v-44c0-1,.4-1.8,1-2.5.7-.7,1.5-1,2.5-1h.1ZM315,33.2c-2.4-.6-4.8-.9-7.3-.9-8.1,0-15,2.9-20.7,8.6-5.7,5.7-8.6,12.6-8.6,20.7s2.9,15,8.6,20.7c5.7,5.7,12.6,8.6,20.7,8.6s4.9-.3,7.3-.9c1.8-.5,2.7-1.6,2.7-3.5h0c0-1.2-.5-2.2-1.4-2.9-.9-.7-1.9-.9-3-.6-1.8.4-3.7.7-5.5.7-6.1,0-11.3-2.2-15.6-6.4-4.3-4.3-6.5-9.5-6.5-15.7s2.2-11.3,6.5-15.7,9.5-6.5,15.6-6.5,3.7.2,5.5.7c1.1.3,2.1,0,3-.6.9-.7,1.4-1.7,1.4-2.8h0c0-1.9-.9-3.1-2.7-3.6h0ZM344.2,55.7c-3.9,0-7.2,1.4-10,4.1-2.7,2.8-4.1,6.1-4.1,10s1.4,7.2,4.1,10c2.8,2.8,6.1,4.1,10,4.1s7.2-1.4,10-4.1c2.8-2.8,4.1-6.1,4.1-10s-1.4-7.2-4.1-10c-2.7-2.8-6-4.1-10-4.1ZM359.2,54.6c-4.2-4.2-9.2-6.2-15.1-6.2s-10.9,2.1-15.1,6.2c-4.2,4.2-6.2,9.2-6.2,15.1s2.1,10.9,6.2,15.1,9.2,6.2,15.1,6.2,10.9-2.1,15.1-6.2c4.2-4.2,6.2-9.2,6.2-15.1s-2.1-10.9-6.2-15.1ZM392.3,55.7c-3.9,0-7.2,1.4-10,4.1-2.7,2.8-4.1,6.1-4.1,10s1.4,7.2,4.1,10c2.8,2.8,6.1,4.1,10,4.1s7.2-1.4,10-4.1c2.8-2.8,4.1-6.1,4.1-10s-1.4-7.2-4.1-10c-2.7-2.8-6-4.1-10-4.1ZM412.5,33.3c-.7-.7-1.5-1-2.5-1h-.1c-1,0-1.8.3-2.5,1-.7.7-1,1.5-1,2.5v17.8c-4-3.6-8.7-5.3-14.1-5.3s-10.9,2.1-15.1,6.2c-4.2,4.2-6.2,9.2-6.2,15.1s2.1,10.9,6.2,15.1,9.2,6.2,15.1,6.2,10.9-2.1,15-6.2,6.3-9.1,6.3-15v-33.9c0-1-.4-1.8-1-2.5h0ZM441.6,55.7c-3.9,0-7.2,1.4-10,4.1-2.7,2.8-4.1,6.1-4.1,10s0,1.4.2,2.1l24.7-11.2c-2.8-3.4-6.4-5-10.8-5h0ZM461.1,63.5c.3-.9.3-1.8-.1-2.7-1.7-3.7-4.3-6.7-7.7-9-3.5-2.3-7.4-3.5-11.6-3.5s-10.9,2.1-15.1,6.2c-4.2,4.2-6.2,9.2-6.2,15.1s2.1,10.9,6.2,15.1,9.2,6.2,15.1,6.2,8.7-1.3,12.5-4c3.6-2.6,6.2-6,7.7-10.2.4-1.2.3-2.2-.4-3.2-.7-1-1.7-1.5-2.9-1.5s-2.9.8-3.4,2.4c-1,2.8-2.6,5.1-5,6.8-2.5,1.8-5.2,2.7-8.3,2.7-4.6,0-8.3-1.8-11.1-5.4,2.2-1,7-3.2,14.3-6.5,5.9-2.7,10.7-4.8,14.4-6.5.9-.4,1.5-1.1,1.9-2h0Z"/>
    </g>
    <g id="uuid-58b93c6d-fc37-48fb-af8e-53ea2e9287f3">
      <path id="uuid-91012e00-d040-4f70-ab2c-83938b8b56bf" class="st0" d="M67.5,83.1c2.5-2.5,6.5-2.5,9,0,2.5,2.5,2.5,6.5,0,9l-11.1,11.1c-10.2,10.2-26.9,10.3-37.3.3,0,0-4.7-4.6-20-19.6-10.1-9.9-11.2-25.9-1.6-36.1l17.8-19.1c9.5-10.1,27-11.3,37.8-2.5l16.2,13.1c2.7,2.2,3.2,6.2,1,9s-6.2,3.2-9,1l-16.2-13.1c-5.7-4.6-15.6-4-20.5,1.3l-17.8,19.1c-4.6,5-4.1,13,1.2,18.3,11.2,11,19.8,19.5,19.8,19.5,5.4,5.2,14.1,5.1,19.4-.2l11.1-11.1h0Z"/>
      <path id="uuid-aab0c755-2160-4f95-a967-77dc5fc7a46a" class="st1" d="M40.6,72c-3.5,0-6.4-2.9-6.4-6.4s2.8-6.4,6.4-6.4h47c3.5,0,6.4,2.9,6.4,6.4s-2.8,6.4-6.4,6.4h-47Z"/>
      <path id="uuid-9ec73720-edd5-4565-9515-376ad333b30c" class="st2" d="M49.4,2c2.4-2.6,6.4-2.7,9-.3s2.7,6.5.3,9L15.9,56.6c-4.6,5-4.1,13,1.2,18.3l19.8,19.4c2.5,2.5,2.6,6.5,0,9-2.5,2.5-6.5,2.6-9,0l-19.8-19.4c-10.1-9.9-11.2-25.9-1.6-36.1L49.4,2Z"/>
    </g>
  </g>
</svg>